<svg width="24" height="40" viewBox="0 0 24 40" fill="none" xmlns="http://www.w3.org/2000/svg">
<path fill-rule="evenodd" clip-rule="evenodd" d="M7 18.6405H9.91V33.2105H7V18.6405ZM14 18.6405H16.9V33.2105H14V18.6405ZM10.5 15.7305H13.4V33.2105H10.49L10.5 15.7305Z" fill="#FFD300"/>
<path fill-rule="evenodd" clip-rule="evenodd" d="M21 9.9H23.9V16.9L21 19.8V9.9ZM0 9.9H2.92V19.81L0 16.9V9.9ZM3.5 6.4H6.42V23.31L3.5 20.39V6.4ZM9.91 18.06H7V2.91H9.91V18.06ZM10.49 0H13.4V15.15H10.49V0ZM16.9 18.06H14V2.91H16.9V18.06ZM17.49 6.4H20.4V20.4L17.49 23.3V6.4Z" fill="black"/>
</svg>
