<svg width="100" height="41" viewBox="0 0 100 41" fill="none" xmlns="http://www.w3.org/2000/svg">
<g clip-path="url(#clip0_44_2233)">
<path d="M66.18 36.9996V39.9996H65.27V37.8296L64.34 39.9996H63.5L62.57 37.8096V39.9996H61.66V36.9996H63L63.91 39.2196L64.83 36.9996H66.18ZM70.1 37.2196C70.2579 37.4018 70.337 37.6391 70.32 37.8796V39.9996H69.41V38.9996H67.76V39.9996H66.84V37.8496C66.8306 37.7297 66.8462 37.6091 66.8858 37.4955C66.9254 37.3819 66.9881 37.2777 67.07 37.1896C67.317 37.015 67.6193 36.9368 67.92 36.9696H69.26C69.5577 36.9345 69.8577 37.0131 70.1 37.1896V37.2196ZM67.76 38.1896V38.3396H69.41V38.1296C69.4202 37.9969 69.381 37.8652 69.3 37.7596C69.23 37.6796 69.08 37.6396 68.83 37.6396H68.32C68.1589 37.6235 67.9977 37.67 67.87 37.7696C67.7905 37.8721 67.7514 38.0002 67.76 38.1296V38.1896ZM72 39.9996H72.91V37.6596H74.22V36.9996H70.75V37.6896H72V39.9996ZM75.82 38.8096H78.13V38.1196H75.56C75.5567 37.9923 75.5993 37.8681 75.68 37.7696C75.7425 37.7189 75.8145 37.6812 75.8918 37.6589C75.9691 37.6365 76.0501 37.63 76.13 37.6396H78.13V36.9996H75.72C75.4226 36.9684 75.124 37.0466 74.88 37.2196C74.796 37.3063 74.7319 37.4102 74.6922 37.5242C74.6524 37.6382 74.6381 37.7595 74.65 37.8796V39.1696C74.6381 39.2897 74.6524 39.411 74.6922 39.525C74.7319 39.639 74.796 39.7429 74.88 39.8296C75.124 40.0026 75.4226 40.0808 75.72 40.0496H78.13V39.3596H76.13C76.0501 39.3692 75.9691 39.3626 75.8918 39.3403C75.8145 39.318 75.7425 39.2803 75.68 39.2296C75.5971 39.1246 75.5545 38.9933 75.56 38.8596H75.82V38.8096ZM80.91 38.2996C80.9503 38.3009 80.9903 38.2942 81.0279 38.2797C81.0655 38.2652 81.0997 38.2433 81.1286 38.2153C81.1576 38.1873 81.1806 38.1538 81.1963 38.1168C81.212 38.0797 81.22 38.0398 81.22 37.9996C81.22 37.9174 81.1874 37.8385 81.1292 37.7804C81.0711 37.7222 80.9922 37.6896 80.91 37.6896H79.56V38.2996H80.91ZM81.91 37.2196C81.99 37.309 82.0514 37.4134 82.0909 37.5266C82.1304 37.6399 82.1471 37.7598 82.14 37.8796V38.1196C82.1468 38.2378 82.13 38.3562 82.0905 38.4678C82.051 38.5794 81.9897 38.682 81.91 38.7696C81.6691 38.9496 81.369 39.0318 81.07 38.9996H79.57V39.9996H78.66V36.9996H81.07C81.3677 36.9645 81.6677 37.0431 81.91 37.2196ZM85.28 36.9996L83.57 39.2596V36.9996H82.65V39.9996H83.88L85.57 37.7396V39.9996H86.48V36.9996H85.28ZM90.28 37.2196C90.4379 37.4018 90.517 37.6391 90.5 37.8796V39.9996H89.59V38.9996H87.92V39.9996H87V37.8496C86.9893 37.7287 87.0053 37.607 87.0468 37.493C87.0882 37.3789 87.1542 37.2754 87.24 37.1896C87.4823 37.0131 87.7823 36.9345 88.08 36.9696H89.42C89.7177 36.9345 90.0177 37.0131 90.26 37.1896L90.28 37.2196ZM87.92 38.1896V38.3396H89.57V38.1296C89.5802 37.9969 89.541 37.8652 89.46 37.7596C89.395 37.7103 89.3209 37.6743 89.242 37.6537C89.163 37.6332 89.0808 37.6283 89 37.6396H88.48C88.3189 37.6235 88.1577 37.67 88.03 37.7696C87.9505 37.8721 87.9114 38.0002 87.92 38.1296V38.1896ZM98.76 38.8096V39.9996H99.68V36.9996H98.76V38.8596V38.8096ZM97.61 38.9996C97.6114 38.9598 97.6046 38.9202 97.59 38.8832C97.5755 38.8461 97.5534 38.8125 97.5253 38.7843C97.4971 38.7562 97.4635 38.7342 97.4265 38.7196C97.3894 38.705 97.3498 38.6982 97.31 38.6996H96V39.3096H97.35C97.3903 39.3096 97.4301 39.3015 97.4672 39.2858C97.5042 39.2701 97.5378 39.2471 97.5658 39.2182C97.5938 39.1893 97.6156 39.155 97.6301 39.1175C97.6446 39.0799 97.6514 39.0398 97.65 38.9996H97.61ZM98.56 39.1196C98.577 39.36 98.4979 39.5974 98.34 39.7796C98.0977 39.9561 97.7977 40.0347 97.5 39.9996H95.05V36.9996H96V37.9996H97.5C97.799 37.9674 98.0991 38.0495 98.34 38.2296C98.4184 38.3177 98.4782 38.4206 98.516 38.5323C98.5538 38.6439 98.5688 38.762 98.56 38.8796V39.1196ZM92.4 36.9996C92.1023 36.9645 91.8023 37.0431 91.56 37.2196C91.4753 37.3062 91.4101 37.4098 91.3687 37.5236C91.3273 37.6375 91.3107 37.7588 91.32 37.8796V38.8796C91.3265 39.0026 91.2873 39.1237 91.21 39.2196C91.1704 39.2584 91.1235 39.289 91.072 39.3096C91.0205 39.3302 90.9655 39.3404 90.91 39.3396V39.9996H91.16C91.4546 40.0306 91.751 39.96 92 39.7996C92.0824 39.7118 92.1455 39.6077 92.1851 39.494C92.2247 39.3803 92.24 39.2596 92.23 39.1396V38.1396C92.2267 38.0123 92.2693 37.8881 92.35 37.7896C92.4117 37.7414 92.4824 37.706 92.558 37.6854C92.6335 37.6648 92.7124 37.6594 92.79 37.6696H93.59V39.9996H94.51V36.9996H92.4ZM33.4 37.2196C33.5579 37.4018 33.637 37.6391 33.62 37.8796V39.9996H32.71V38.9996H31V39.9996H30.08V37.8496C30.0694 37.7287 30.0853 37.607 30.1268 37.493C30.1682 37.3789 30.2342 37.2754 30.32 37.1896C30.5772 37.0135 30.8931 36.9452 31.2 36.9996H32.54C32.8377 36.9645 33.1377 37.0431 33.38 37.2196H33.4ZM31.04 38.2196V38.3696H32.69V38.1596C32.7002 38.0269 32.661 37.8952 32.58 37.7896C32.515 37.7403 32.4409 37.7043 32.362 37.6837C32.283 37.6632 32.2008 37.6583 32.12 37.6696H31.6C31.5217 37.6608 31.4424 37.6677 31.3669 37.6901C31.2913 37.7124 31.221 37.7496 31.16 37.7996C31.1171 37.8486 31.0844 37.9057 31.0638 37.9675C31.0432 38.0293 31.0351 38.0946 31.04 38.1596V38.2196ZM40.77 38.1596V38.8596C40.7736 38.9884 40.735 39.1148 40.66 39.2196C40.595 39.2689 40.5209 39.3048 40.442 39.3254C40.363 39.346 40.2808 39.3508 40.2 39.3396H39.69C39.6101 39.3492 39.5291 39.3426 39.4518 39.3203C39.3745 39.298 39.3025 39.2603 39.24 39.2096C39.1605 39.1071 39.1214 38.979 39.13 38.8496V38.1596C39.1214 38.0302 39.1605 37.9021 39.24 37.7996C39.3025 37.7489 39.3745 37.7112 39.4518 37.6889C39.5291 37.6665 39.6101 37.66 39.69 37.6696H40.2C40.3663 37.6474 40.5347 37.6904 40.67 37.7896C40.7483 37.8961 40.784 38.0281 40.77 38.1596ZM41.46 39.7996C41.5406 39.7126 41.6026 39.6101 41.6422 39.4983C41.6817 39.3866 41.698 39.2679 41.69 39.1496V37.8496C41.6976 37.7298 41.6812 37.6097 41.6417 37.4963C41.6022 37.383 41.5404 37.2787 41.46 37.1896C41.2177 37.0131 40.9177 36.9345 40.62 36.9696H39.28C38.9826 36.9384 38.684 37.0166 38.44 37.1896C38.3542 37.2754 38.2882 37.3789 38.2468 37.493C38.2053 37.607 38.1894 37.7287 38.2 37.8496V39.1396C38.1907 39.2603 38.2073 39.3817 38.2487 39.4955C38.2901 39.6094 38.3553 39.713 38.44 39.7996C38.684 39.9726 38.9826 40.0508 39.28 40.0196H40.62C40.9194 40.0571 41.2215 39.9744 41.46 39.7896V39.7996ZM24.24 39.7896C24.3979 39.6074 24.477 39.37 24.46 39.1296V38.8296H23.55C23.5602 38.9623 23.521 39.094 23.44 39.1996C23.375 39.2489 23.3009 39.2848 23.222 39.3054C23.143 39.326 23.0608 39.3308 22.98 39.3196H22.46C22.3792 39.3326 22.2966 39.3286 22.2174 39.308C22.1382 39.2873 22.0642 39.2504 22 39.1996C21.9571 39.1506 21.9244 39.0935 21.9038 39.0317C21.8832 38.9699 21.8751 38.9046 21.88 38.8396V38.1496C21.8751 38.0846 21.8832 38.0193 21.9038 37.9575C21.9244 37.8957 21.9571 37.8386 22 37.7896C22.061 37.7396 22.1313 37.7024 22.2069 37.6801C22.2824 37.6577 22.3617 37.6508 22.44 37.6596H23C23.0808 37.6483 23.163 37.6532 23.242 37.6737C23.3209 37.6943 23.395 37.7303 23.46 37.7796C23.5419 37.8847 23.5812 38.0168 23.57 38.1496H24.48V37.8496C24.497 37.6091 24.4179 37.3718 24.26 37.1896C24.0082 37.0186 23.7004 36.9506 23.4 36.9996H22.06C21.7626 36.9684 21.464 37.0466 21.22 37.2196C21.1342 37.3054 21.0682 37.4089 21.0268 37.523C20.9853 37.637 20.9694 37.7587 20.98 37.8796V39.1696C20.9694 39.2905 20.9853 39.4122 21.0268 39.5262C21.0682 39.6403 21.1342 39.7438 21.22 39.8296C21.464 40.0026 21.7626 40.0808 22.06 40.0496H23.4C23.6977 40.0847 23.9977 40.0061 24.24 39.8296V39.7896ZM47.24 38.8296H48.89V39.9996H49.81V36.9996H48.89V38.1696H47.2V36.9996H46.3V39.9996H47.2L47.24 38.8296ZM56.74 38.8296H59V38.1396H56.44C56.4367 38.0123 56.4793 37.8881 56.56 37.7896C56.6225 37.7389 56.6945 37.7012 56.7718 37.6789C56.8491 37.6565 56.9301 37.65 57.01 37.6596H59.01V36.9996H56.6C56.3026 36.9684 56.004 37.0466 55.76 37.2196C55.676 37.3063 55.6119 37.4102 55.5722 37.5242C55.5324 37.6382 55.5181 37.7595 55.53 37.8796V39.1696C55.5181 39.2897 55.5324 39.411 55.5722 39.525C55.6119 39.639 55.676 39.7429 55.76 39.8296C56.004 40.0026 56.3026 40.0808 56.6 40.0496H59V39.3596H57C56.9201 39.3692 56.8391 39.3626 56.7618 39.3403C56.6845 39.318 56.6125 39.2803 56.55 39.2296C56.4671 39.1246 56.4245 38.9933 56.43 38.8596H56.69L56.74 38.8296ZM54.03 38.8596V39.9996H55V36.9996H54V38.8596H54.03ZM52.9 38.9996C52.9 38.9593 52.892 38.9195 52.8763 38.8824C52.8606 38.8454 52.8376 38.8118 52.8087 38.7838C52.7797 38.7558 52.7455 38.734 52.7079 38.7195C52.6703 38.705 52.6303 38.6982 52.59 38.6996H51.24V39.3096H52.59C52.6722 39.3096 52.7511 39.2769 52.8092 39.2188C52.8674 39.1607 52.9 39.0818 52.9 38.9996ZM53.81 39.1196C53.8171 39.2393 53.8004 39.3593 53.7609 39.4725C53.7214 39.5858 53.66 39.6902 53.58 39.7796C53.3377 39.9561 53.0377 40.0347 52.74 39.9996H50.33V36.9996H51.24V37.9996H52.74C53.039 37.9674 53.3391 38.0495 53.58 38.2296C53.6597 38.3172 53.721 38.4198 53.7605 38.5314C53.8 38.643 53.8168 38.7614 53.81 38.8796V39.1196ZM37.51 38.6196C37.4552 38.5503 37.3872 38.4925 37.31 38.4496C37.3751 38.4095 37.4299 38.3547 37.47 38.2896C37.5507 38.1535 37.5922 37.9978 37.59 37.8396C37.5903 37.6614 37.5455 37.486 37.46 37.3296C37.3744 37.1864 37.2392 37.0796 37.08 37.0296C36.8751 36.9719 36.6628 36.9449 36.45 36.9496H35.23C34.9323 36.9145 34.6323 36.9931 34.39 37.1696C34.2316 37.3554 34.1526 37.596 34.17 37.8396H35.17C35.1681 37.813 35.1681 37.7862 35.17 37.7596C35.2662 37.69 35.3814 37.6516 35.5 37.6496H36.5C36.72 37.6496 36.75 37.7596 36.75 37.8696C36.75 37.9796 36.67 38.1196 36.5 38.1196H35.56V38.7896H36.42C36.5062 38.7761 36.5939 38.7761 36.68 38.7896C36.7179 38.8056 36.752 38.8294 36.78 38.8596C36.7862 38.9094 36.7862 38.9598 36.78 39.0096C36.7836 39.043 36.7791 39.0768 36.7669 39.1081C36.7548 39.1394 36.7352 39.1674 36.71 39.1896C36.6207 39.2357 36.5204 39.2565 36.42 39.2496H35.51C35.3914 39.2475 35.2762 39.2092 35.18 39.1396C35.1829 39.1197 35.1829 39.0995 35.18 39.0796H34.18C34.1678 39.3164 34.2465 39.5489 34.4 39.7296C34.6386 39.9144 34.9406 39.9971 35.24 39.9596H36.6C36.8016 39.9685 37.0027 39.9345 37.19 39.8596C37.3428 39.8008 37.4678 39.6865 37.54 39.5396C37.6181 39.3706 37.6557 39.1857 37.65 38.9996C37.6595 38.8484 37.6132 38.699 37.52 38.5796L37.51 38.6196ZM44.82 36.9996V38.3096H43.47C43.3878 38.3096 43.309 38.2769 43.2508 38.2188C43.1927 38.1607 43.16 38.0818 43.16 37.9996V36.9996H42.25V38.1196C42.2432 38.2378 42.26 38.3562 42.2995 38.4678C42.339 38.5794 42.4004 38.682 42.48 38.7696C42.7178 38.9481 43.0143 39.0302 43.31 38.9996H44.81V39.9996H45.72V36.9996H44.82ZM28.2 36.9996L27.29 39.2196L26.38 36.9996H25V39.9996H25.91V37.8296L26.87 39.9996H27.71L28.64 37.8096V39.9996H29.55V36.9996H28.2Z" fill="black"/>
<path fill-rule="evenodd" clip-rule="evenodd" d="M7 18.6405H9.91V33.2105H7V18.6405ZM14 18.6405H16.9V33.2105H14V18.6405ZM10.5 15.7305H13.4V33.2105H10.49L10.5 15.7305Z" fill="#FFD300"/>
<path fill-rule="evenodd" clip-rule="evenodd" d="M21 9.9H23.9V16.9L21 19.8V9.9ZM0 9.9H2.92V19.81L0 16.9V9.9ZM3.5 6.4H6.42V23.31L3.5 20.39V6.4ZM9.91 18.06H7V2.91H9.91V18.06ZM10.49 0H13.4V15.15H10.49V0ZM16.9 18.06H14V2.91H16.9V18.06ZM17.49 6.4H20.4V20.4L17.49 23.3V6.4Z" fill="black"/>
<path d="M38.54 32.6601C37.9639 33.0837 37.2517 33.2796 36.54 33.2101H33.27C32.5611 33.2816 31.8504 33.0932 31.27 32.6801C31.0678 32.4685 30.9124 32.2166 30.8142 31.9409C30.716 31.6652 30.6771 31.3719 30.7 31.0801V28.0001C30.6772 27.7098 30.7163 27.418 30.8145 27.144C30.9128 26.8699 31.068 26.6198 31.27 26.4101C31.8504 25.9969 32.5611 25.8086 33.27 25.8801H36.51C37.2203 25.8087 37.9321 26.0008 38.51 26.4201C38.7057 26.632 38.857 26.881 38.9549 27.1524C39.0528 27.4238 39.0953 27.712 39.08 28.0001V31.1301C39.0999 31.4161 39.0624 31.7033 38.9696 31.9746C38.8769 32.246 38.7308 32.496 38.54 32.7101V32.6601ZM36.87 28.7101C36.8906 28.3936 36.8024 28.0795 36.62 27.8201C36.2895 27.5934 35.8881 27.4939 35.49 27.5401H34.25C34.0584 27.5173 33.8642 27.533 33.6787 27.5862C33.4933 27.6395 33.3203 27.7292 33.17 27.8501C32.9759 28.0936 32.8765 28.399 32.89 28.7101V30.3901C32.8711 30.7049 32.9711 31.0153 33.17 31.2601C33.3191 31.383 33.492 31.474 33.6778 31.5273C33.8636 31.5806 34.0583 31.5952 34.25 31.5701H35.49C35.8853 31.6224 36.2858 31.5223 36.61 31.2901C36.7858 31.0308 36.8767 30.7233 36.87 30.4101V28.7101Z" fill="black"/>
<path d="M48.24 32.6609C47.6653 33.0871 46.952 33.2833 46.24 33.2109H43C42.2916 33.2769 41.5828 33.0891 41 32.6809C40.7978 32.4693 40.6425 32.2174 40.5443 31.9417C40.4461 31.666 40.4071 31.3726 40.43 31.0809V28.0009C40.4033 27.7103 40.4405 27.4174 40.539 27.1427C40.6374 26.8681 40.7948 26.6183 41 26.4109C41.5828 26.0026 42.2916 25.8148 43 25.8809H46.24C46.9506 25.8066 47.6634 25.999 48.24 26.4209C48.4304 26.6352 48.5762 26.8853 48.6689 27.1566C48.7616 27.4278 48.7994 27.7148 48.78 28.0009V28.7209H46.57C46.5907 28.4044 46.5025 28.0903 46.32 27.8309C45.9911 27.6007 45.5884 27.501 45.19 27.5509H44C43.8085 27.5281 43.6142 27.5438 43.4288 27.597C43.2433 27.6502 43.0704 27.7399 42.92 27.8609C42.7287 28.1053 42.6328 28.4109 42.65 28.7209V30.4009C42.6284 30.7144 42.7247 31.0247 42.92 31.2709C43.0692 31.3938 43.242 31.4848 43.4278 31.5381C43.6136 31.5914 43.8084 31.606 44 31.5809H45.24C45.6384 31.6308 46.0411 31.531 46.37 31.3009C46.557 31.0398 46.6456 30.721 46.62 30.4009H48.83V31.1309C48.8499 31.4169 48.8124 31.7041 48.7197 31.9754C48.6269 32.2468 48.4809 32.4968 48.29 32.7109" fill="black"/>
<path d="M52.28 33.2101H50.09L50.07 31.0901V27.9501L50.09 25.8301H52.28V28.6501H56.25V25.8301H58.48V27.9501V31.0901V33.2101H56.25V30.3301H52.28V33.2101Z" fill="black"/>
<path d="M62.6101 30.3302H62.0001C61.9781 30.6515 62.0781 30.9693 62.2801 31.2202C62.4292 31.3431 62.6021 31.4341 62.7879 31.4874C62.9736 31.5407 63.1684 31.5553 63.3601 31.5302H68.1901V33.2102H62.3701C61.6616 33.2763 60.9528 33.0884 60.3701 32.6802C60.1717 32.4663 60.0195 32.2139 59.9232 31.9386C59.8268 31.6633 59.7883 31.371 59.8101 31.0802V28.0002C59.7879 27.7108 59.8262 27.4199 59.9226 27.1462C60.0191 26.8724 60.1714 26.6218 60.3701 26.4102C60.9528 26.0019 61.6616 25.8141 62.3701 25.8802H68.1801V27.5002H63.3501C63.1585 27.4774 62.9643 27.4931 62.7788 27.5463C62.5934 27.5995 62.4204 27.6892 62.2701 27.8102C62.0757 28.0457 61.9759 28.3451 61.9901 28.6502H68.1801V30.3302H62.6101Z" fill="black"/>
<path d="M85.19 27.5001H82.15V25.8301H84.7H87.94H90.56V27.5001H87.39V33.2101H85.19V27.5001Z" fill="black"/>
<path d="M80.2 27.1601H76.79V25.8301H74.61V27.1601H71.1C70.8142 27.175 70.5343 27.2476 70.2773 27.3735C70.0203 27.4995 69.7914 27.6762 69.6046 27.893C69.4177 28.1098 69.2766 28.3621 69.1899 28.6349C69.1032 28.9077 69.0726 29.1952 69.1 29.4801C69.0754 29.7619 69.1083 30.0457 69.1966 30.3144C69.285 30.5831 69.4269 30.8311 69.6139 31.0433C69.8009 31.2556 70.029 31.4276 70.2845 31.5491C70.5399 31.6706 70.8174 31.739 71.1 31.7501H74.55V33.2101H76.73V31.7501H80.09C80.3722 31.7376 80.6489 31.6683 80.9037 31.5463C81.1585 31.4244 81.386 31.2523 81.5727 31.0404C81.7595 30.8285 81.9015 30.581 81.9904 30.313C82.0793 30.0449 82.1131 29.7616 82.09 29.4801C82.116 29.1954 82.0844 28.9085 81.9971 28.6363C81.9099 28.3642 81.7687 28.1123 81.5821 27.8959C81.3955 27.6794 81.1672 27.5027 80.9109 27.3763C80.6545 27.2499 80.3753 27.1763 80.09 27.1601H80.2ZM79 30.2801H76.79V28.7201H79C79 28.7201 79.77 28.6201 79.77 29.5401C79.7745 29.6402 79.7577 29.7401 79.7209 29.8332C79.684 29.9264 79.6278 30.0107 79.556 30.0806C79.4842 30.1505 79.3985 30.2044 79.3044 30.2388C79.2103 30.2732 79.1099 30.2872 79.01 30.2801H79ZM71.58 29.5401C71.58 28.6201 72.35 28.7201 72.35 28.7201H74.6V30.2801H72.35C72.2509 30.2858 72.1517 30.2706 72.0588 30.2356C71.9659 30.2005 71.8813 30.1464 71.8107 30.0766C71.74 30.0069 71.6847 29.9231 71.6484 29.8307C71.6121 29.7383 71.5956 29.6393 71.6 29.5401" fill="black"/>
<path d="M28.83 26.3708C28.2542 25.9472 27.5407 25.7545 26.83 25.8308H21V33.2108H23.19V30.6608H26.82C27.5324 30.7392 28.2479 30.5425 28.82 30.1108C29.0126 29.8975 29.1605 29.6479 29.255 29.3765C29.3495 29.1051 29.3886 28.8175 29.37 28.5308V28.0008C29.3874 27.7141 29.3478 27.4269 29.2534 27.1556C29.159 26.8844 29.0117 26.6346 28.82 26.4208L28.83 26.3708ZM26.45 29.0008H23.18V27.5008H26.45C26.6463 27.5008 26.8345 27.5787 26.9733 27.7175C27.112 27.8563 27.19 28.0445 27.19 28.2408C27.19 28.437 27.112 28.6253 26.9733 28.764C26.8345 28.9028 26.6463 28.9808 26.45 28.9808" fill="black"/>
<path d="M99.93 31.0801V30.5001C99.9507 30.2147 99.9145 29.9281 99.8236 29.6569C99.7326 29.3857 99.5886 29.1352 99.4 28.9201C98.8239 28.4974 98.1107 28.3048 97.4 28.3801H93.74V25.8301H91.54V33.2101H97.37C98.0816 33.2777 98.7932 33.082 99.37 32.6601C99.5596 32.4456 99.7041 32.1952 99.7952 31.9238C99.8862 31.6524 99.9219 31.3655 99.9 31.0801H99.93ZM97.71 30.7901C97.71 30.9863 97.6321 31.1746 97.4933 31.3133C97.3545 31.4521 97.1663 31.5301 96.97 31.5301H93.74V30.0501H97C97.1963 30.0501 97.3845 30.128 97.5233 30.2668C97.6621 30.4056 97.74 30.5938 97.74 30.7901" fill="black"/>
</g>
<defs>
<clipPath id="clip0_44_2233">
<rect width="99.93" height="40.02" fill="white"/>
</clipPath>
</defs>
</svg>
