<?xml version="1.0" encoding="UTF-8"?>
<svg width="54px" height="82px" viewBox="0 0 54 82" version="1.1" xmlns="http://www.w3.org/2000/svg" xmlns:xlink="http://www.w3.org/1999/xlink">
    <!-- Generator: Sketch 51.3 (57544) - http://www.bohemiancoding.com/sketch -->
    <title>map-ico</title>
    <desc>Created with Sketch.</desc>
    <defs>
        <filter x="-18.9%" y="-62.9%" width="137.8%" height="225.8%" filterUnits="objectBoundingBox" id="filter-1">
            <feGaussianBlur stdDeviation="2.24888393" in="SourceGraphic"></feGaussianBlur>
        </filter>
        <linearGradient x1="6.2812281%" y1="58.0055164%" x2="89.9396325%" y2="12.0860417%" id="linearGradient-2">
            <stop stop-color="#F36C21" offset="0%"></stop>
            <stop stop-color="#A32771" offset="100%"></stop>
        </linearGradient>
    </defs>
    <g id="Dashboard" stroke="none" stroke-width="1" fill="none" fill-rule="evenodd">
        <g id="Dashboard-1.3" transform="translate(-694.000000, -437.000000)">
            <g id="map-ico" transform="translate(694.000000, 437.000000)">
                <path d="M27.7278224,76.5916409 C17.8777128,76.5916409 9.86400387,74.1854319 9.86400387,71.2278224 C9.86400387,68.2702128 17.8777128,65.8640039 27.7278224,65.8640039 C37.5779319,65.8640039 45.5916409,68.2702128 45.5916409,71.2278224 C45.5916409,74.1854319 37.5779319,76.5916409 27.7278224,76.5916409 Z" id="Path" fill="#000000" fill-rule="nonzero" opacity="0.136774554" filter="url(#filter-1)"></path>
                <path d="M26.7278226,0 C11.9900194,0 0,11.9900194 0,26.7278226 C0,31.4452833 1.24638928,36.0832423 3.60430142,40.140144 C4.15399455,41.0859816 4.76846173,42.0076824 5.43092991,42.8797458 L25.566526,69.8196182 L27.8889828,69.8196182 L48.0247153,42.8798821 C48.6870471,42.0076824 49.3015142,41.086118 49.8513437,40.1402803 C52.2092559,36.0832423 53.4556452,31.4452833 53.4556452,26.7278226 C53.4556452,11.9900194 41.4656258,0 26.7278226,0 Z" id="Shape" fill="url(#linearGradient-2)"></path>
                <g id="Group-6" transform="translate(12.000000, 12.000000)" fill="#F7F7F7">
                    <path d="M14.7233445,16.6923141 C11.4616836,17.2941387 7.51529768,20.4911446 7.90491172,22.7758697 C8.24437371,24.7732498 9.50201113,26.6759399 10.8753913,28.1496241 C11.9343854,23.7190276 18.5790638,20.7382557 24.3318591,20.9020919 C23.2007246,17.4080101 17.6783854,16.2640568 14.7233445,16.6923141 Z" id="Shape"></path>
                    <path d="M13.6142918,24.2215773 C12.2304322,25.3229574 11.2331924,26.6536709 10.8754848,28.1495305 C12.7685374,30.1797527 15.155438,31.6879633 16.8721164,31.9976709 C15.716748,31.2337878 13.8949936,27.0751913 13.6142918,24.2215773 Z" id="Shape"></path>
                    <path d="M10.9333094,11.4034253 C5.19108716,14.5965949 2.30173043,19.774513 5.94729768,24.8078697 C3.2786661,16.4559633 21.390479,14.1963141 24.3319527,20.9019984 L26.2250989,14.2465598 C23.2363737,11.486513 15.3465959,10.4197527 10.9333094,11.4034253 Z" id="Shape"></path>
                    <path d="M27.3698006,10.2257878 L29.2052158,3.77862994 C20.9941281,1.96164748 8.92339125,3.43551883 3.84661932,8.77343696 C0.362268443,12.7604311 2.59684154,21.4651796 5.94729768,24.8078697 C1.09330938,16.3799867 10.5494029,6.86868842 27.3698006,10.2257878 Z" id="Shape"></path>
                    <path d="M29.2052158,3.77862994 C19.213824,-2.86137006 -3.90524033,-1.55255135 0.567742128,14.1886416 C3.0963971,3.97736678 19.7789702,1.8364545 29.2052158,3.77862994 Z" id="Shape"></path>
                </g>
            </g>
        </g>
    </g>
</svg>