<svg xmlns="http://www.w3.org/2000/svg" id="smart-wifi" viewBox="0 0 325.86 357.02"><defs><mask id="mask" x="73.76" y="149.51" width="180.75" height="253" maskUnits="userSpaceOnUse"><path d="M219.51 367.51s-91.25-37.9-110.75-183" fill="none" stroke="#fff" stroke-linecap="round" stroke-miterlimit="10" stroke-width="70" fill-rule="evenodd" stroke-dashoffset="222.359" stroke-dasharray="222.359" style="animation:step-1 3s ease-in-out both infinite"/></mask><linearGradient id="linear-gradient" x1="96.13" y1="231.27" x2="215.08" y2="303.67" gradientUnits="userSpaceOnUse"><stop offset=".47" stop-color="#00b072"/><stop offset=".81" stop-color="#77c043"/></linearGradient><mask id="mask-2" x="48.42" y="159.2" width="289.33" height="195.81" maskUnits="userSpaceOnUse"><path d="M84.42 319s23.33-137.67 217.33-122.67" fill="none" stroke="#fff" stroke-linecap="round" stroke-miterlimit="10" stroke-width="72" fill-rule="evenodd" stroke-dashoffset="273.383" stroke-dasharray="273.383" style="animation:step-2 3s ease-in-out both infinite"/></mask><linearGradient id="linear-gradient-2" x1="91.12" y1="249.47" x2="295.92" y2="219.23" gradientUnits="userSpaceOnUse"><stop offset="0" stop-color="#00b072"/><stop offset="1" stop-color="#00acc8"/></linearGradient><mask id="mask-3" x="14.57" y="122.01" width="330.18" height="220" maskUnits="userSpaceOnUse"><path d="M74.42 307c-58.67-90-6.7-150 85.31-150 124 0 150 71.5 150 71.5" fill="none" stroke="#fff" stroke-linecap="round" stroke-miterlimit="10" stroke-width="70" fill-rule="evenodd" stroke-dashoffset="403.221" stroke-dasharray="403.221" style="animation:step-3 3s ease-in-out both infinite"/></mask><linearGradient id="linear-gradient-3" x1="37.82" y1="216.69" x2="286.97" y2="159.01" gradientUnits="userSpaceOnUse"><stop offset="0" stop-color="#485b8a"/><stop offset="1" stop-color="#00acc8"/></linearGradient><mask id="mask-4" x="7.14" y="36.15" width="362.12" height="306.86" maskUnits="userSpaceOnUse"><path d="M95.76 305.51s-87-75.17-34-163.17c75.33-112 270-53.33 270-53.33" fill="none" stroke="#fff" stroke-linecap="round" stroke-miterlimit="10" stroke-width="75" fill-rule="evenodd" stroke-dashoffset="474.435" stroke-dasharray="474.435" style="animation:step-4 3s ease-in-out both infinite"/></mask><linearGradient id="linear-gradient-4" x1="56.98" y1="173.73" x2="292.57" y2="119.19" gradientUnits="userSpaceOnUse"><stop offset="0" stop-color="#485b8a"/><stop offset="1" stop-color="#a32771"/></linearGradient><mask id="mask-5" x="-31.06" y="3.7" width="417.81" height="224.31" maskUnits="userSpaceOnUse"><path d="M6.66 193s-27.9-110 95.1-145c104-29 250 19 250 19" fill="none" stroke="#fff" stroke-linecap="round" stroke-miterlimit="10" stroke-width="70" fill-rule="evenodd" stroke-dashoffset="446.871" stroke-dasharray="446.871" style="animation:step-5 3s ease-in-out both infinite"/></mask><linearGradient id="linear-gradient-5" x1="26.47" y1="95.48" x2="287.59" y2="25.85" gradientUnits="userSpaceOnUse"><stop offset="0" stop-color="#f36c21"/><stop offset="1" stop-color="#a32771"/></linearGradient></defs><g mask="url(#mask)"><path id="step-1" d="M187.19 349.5c-18.12-3.27-44-19.83-64.09-41.14-.26-.26-.5-.53-.75-.8-14.38-15.63-27.43-35.63-31-56.62-3.37-19.8 23.71-46 52.65-58.63-1.74 23.54 8.34 73.78 8.34 73.78v.27c3.11 30.49 22.54 74.99 34.85 83.14z" fill-rule="evenodd" fill="url(#linear-gradient)"/></g><g mask="url(#mask-2)"><path id="step-2" d="M287.15 159.78l-20.23 71.13c-61.49-1.75-132.5 30.11-143.82 77.46-14.68-15.75-28.1-36.08-31.75-57.43-3.19-18.7 20.81-43.12 47.88-56.43 41.97-21.36 92.72-32.92 147.92-34.73z" fill-rule="evenodd" fill="url(#linear-gradient-2)"/></g><g mask="url(#mask-3)"><path id="step-3" d="M287.15 159.78l-20.23 71.13c-31.44-71.66-225-47.51-196.49 41.75-17.41-17.37-32-48.28-38.11-80.35.52-.82 31.51-48.73 90.93-62.64 2.46-.59 5-1.11 7.54-1.56 3-.53 6.06-1 9.19-1.32h.23c48.31-5.23 118.46 6.68 146.94 32.99z" fill-rule="evenodd" fill="url(#linear-gradient-3)"/></g><g mask="url(#mask-4)"><path id="step-4" d="M299.38 116.81L319 47.91c-87.76-19.42-216.76-3.67-271 53.38-37.26 42.61-13.38 135.64 22.43 171.37-51.88-90.08 49.18-191.73 228.95-155.85z" fill-rule="evenodd" fill="url(#linear-gradient-4)"/></g><g mask="url(#mask-5)"><path id="step-5" d="M319 47.91c-106.78-71-353.87-57-306.06 111.26C40 50 218.25 27.15 319 47.91z" fill-rule="evenodd" fill="url(#linear-gradient-5)"/></g><style>@keyframes step-1{0%,95%,to{stroke-dashoffset:222.359}86%,9%{stroke-dashoffset:0}}@keyframes step-2{86%,9%,to{stroke-dashoffset:273.382}18%,77%{stroke-dashoffset:0}}@keyframes step-3{18%{stroke-dashoffset:403.22}27%,68%{stroke-dashoffset:806.44}77%,to{stroke-dashoffset:403.44}}@keyframes step-4{27%,68%,to{stroke-dashoffset:474.434}36%,59%{stroke-dashoffset:0}}@keyframes step-5{36%,59%,to{stroke-dashoffset:446.871}45%,50%{stroke-dashoffset:893.742}}</style></svg>
<svg aria-hidden="true" focusable="false" data-prefix="fab" data-icon="facebook-f" class="svg-inline--fa fa-facebook-f fa-w-9" role="img" xmlns="http://www.w3.org/2000/svg" viewBox="0 0 264 512"><path fill="currentColor" d="M215.8 85H264V3.6C255.7 2.5 227.1 0 193.8 0 124.3 0 76.7 42.4 76.7 120.3V192H0v91h76.7v229h94V283h73.6l11.7-91h-85.3v-62.7c0-26.3 7.3-44.3 45.1-44.3z"></path></svg>
